<svg height="451pt" viewBox="-1 0 451 451.762" width="451pt" xmlns="http://www.w3.org/2000/svg"><path d="m161.410156 93.589844c-1.949218 23.125-26.050781 26.777344-26.050781 26.777344 20.695313.976562 25.851563 28.117187 25.851563 28.117187.441406-19.351563 26.640624-28.402344 26.640624-28.402344-19.621093-1.175781-26.441406-26.492187-26.441406-26.492187zm0 0" fill="#d7e057"/><path d="m188.03125 117.085938c-17.207031-1.03125-23.660156-24.046876-23.722656-24.28125-.382813-1.40625-1.71875-2.328126-3.167969-2.203126-1.453125.128907-2.597656 1.28125-2.71875 2.734376-1.722656 20.429687-22.628906 23.925781-23.507813 24.0625-1.527343.230468-2.628906 1.582031-2.546874 3.121093.078124 1.542969 1.3125 2.769531 2.855468 2.84375 18.054688.851563 22.996094 25.4375 23.042969 25.6875.273437 1.421875 1.519531 2.433594 2.945313 2.433594.082031 0 .167968-.003906.25-.011719 1.53125-.125 2.714843-1.382812 2.75-2.917968.390624-17.019532 24.382812-25.558594 24.628906-25.640626 1.347656-.46875 2.183594-1.828124 1.988281-3.242187-.199219-1.417969-1.367187-2.5-2.796875-2.585937zm-27.128906 20.691406c-2.714844-6.261719-7.414063-13.816406-15.171875-17.753906 5.859375-2.808594 12.816406-7.824219 16.402343-16.546876 3.101563 6.144532 8.398438 13.761719 16.667969 17.449219-6.015625 3.277344-13.847656 8.808594-17.898437 16.851563zm0 0" fill="#3a312a"/><path d="m118.015625 127.546875c-1.378906 16.359375-18.425781 18.941406-18.425781 18.941406 14.636718.691407 18.28125 19.890625 18.28125 19.890625.3125-13.6875 18.84375-20.089844 18.84375-20.089844-13.878906-.832031-18.699219-18.742187-18.699219-18.742187zm0 0" fill="#d7e057"/><path d="m136.898438 143.292969c-11.535157-.691407-15.945313-16.371094-15.988282-16.53125-.382812-1.402344-1.710937-2.328125-3.164062-2.203125-1.453125.128906-2.597656 1.285156-2.722656 2.734375-1.15625 13.742187-15.292969 16.132812-15.882813 16.226562-1.527344.234375-2.625 1.582031-2.546875 3.121094.082031 1.542969 1.316406 2.769531 2.855469 2.84375 12.070312.566406 15.449219 17.289063 15.480469 17.453125.269531 1.425781 1.515624 2.441406 2.941406 2.441406.085937 0 .167968-.003906.25-.011718 1.53125-.125 2.71875-1.386719 2.753906-2.921876.261719-11.417968 16.664062-17.265624 16.824219-17.324218 1.355469-.46875 2.191406-1.824219 1.992187-3.242188-.195312-1.417968-1.363281-2.503906-2.792968-2.585937zm-19.167969 13.589843c-1.851563-3.773437-4.683594-7.894531-8.894531-10.5625 3.710937-2.082031 7.394531-5.257812 9.742187-9.832031 2.113281 3.75 5.308594 7.910157 9.878906 10.449219-3.699219 2.199219-7.976562 5.480469-10.726562 9.945312zm0 0" fill="#3a312a"/><path d="m118.015625 74.234375c-1.378906 16.359375-18.425781 18.941406-18.425781 18.941406 14.636718.6875 18.28125 19.886719 18.28125 19.886719.3125-13.691406 18.84375-20.089844 18.84375-20.089844-13.878906-.832031-18.699219-18.738281-18.699219-18.738281zm0 0" fill="#d7e057"/><path d="m136.898438 89.976562c-11.535157-.6875-15.945313-16.371093-15.988282-16.527343-.382812-1.402344-1.710937-2.320313-3.164062-2.207031-1.453125.132812-2.597656 1.289062-2.722656 2.738281-1.15625 13.738281-15.292969 16.132812-15.882813 16.226562-1.527344.230469-2.625 1.582031-2.546875 3.121094.082031 1.542969 1.316406 2.769531 2.855469 2.84375 12.070312.566406 15.449219 17.289063 15.480469 17.453125.269531 1.421875 1.515624 2.4375 2.945312 2.4375.082031 0 .164062-.003906.25-.007812 1.53125-.125 2.714844-1.386719 2.75-2.921876.261719-11.417968 16.664062-17.269531 16.828125-17.324218 1.355469-.46875 2.1875-1.828125 1.992187-3.246094-.199218-1.417969-1.367187-2.5-2.796874-2.585938zm-19.167969 13.589844c-1.851563-3.769531-4.683594-7.890625-8.894531-10.558594 3.710937-2.082031 7.394531-5.261718 9.742187-9.832031 2.113281 3.75 5.308594 7.910157 9.878906 10.449219-3.699219 2.199219-7.976562 5.476562-10.726562 9.941406zm0 0" fill="#3a312a"/><path d="m386.777344 78.378906h-106.320313c-32.742187 0-59.300781 26.5625-59.300781 59.320313v283.378906c0 15.300781 12.378906 27.683594 27.660156 27.683594h169.601563c15.277343 0 27.660156-12.382813 27.660156-27.683594v-283.378906c0-32.757813-26.5625-59.320313-59.300781-59.320313zm0 0" fill="#f16c7a"/><path d="m386.777344 75.378906h-106.320313c-34.351562 0-62.300781 27.960938-62.300781 62.320313v283.378906c0 16.917969 13.753906 30.683594 30.660156 30.683594h169.601563c16.90625 0 30.660156-13.765625 30.660156-30.683594v-283.378906c0-34.359375-27.949219-62.320313-62.300781-62.320313zm56.300781 345.703125c0 13.609375-11.0625 24.679688-24.660156 24.679688h-169.601563c-13.597656 0-24.660156-11.070313-24.660156-24.679688v-283.382812c0-31.054688 25.257812-56.320313 56.300781-56.320313h106.320313c31.042968 0 56.300781 25.265625 56.300781 56.320313zm0 0" fill="#3a312a"/><path d="m284.117188 40.695312h99v37.691407h-99zm0 0" fill="#f16c7a"/><path d="m383.117188 37.695312h-99c-1.660157 0-3 1.34375-3 3v37.691407c0 1.65625 1.339843 3 3 3h99c1.65625 0 3-1.34375 3-3v-37.691407c0-1.65625-1.34375-3-3-3zm-3 37.691407h-93v-31.691407h93zm0 0" fill="#3a312a"/><path d="m382.1875 3h-97.140625c-10.40625 0-18.847656 8.4375-18.847656 18.847656 0 10.40625 8.441406 18.84375 18.847656 18.84375h97.140625c10.40625 0 18.84375-8.4375 18.84375-18.84375 0-10.410156-8.4375-18.847656-18.84375-18.847656zm0 0" fill="#d7e057"/><path d="m382.1875 0h-97.140625c-12.046875 0-21.847656 9.800781-21.847656 21.847656s9.800781 21.847656 21.847656 21.847656h97.140625c12.046875 0 21.84375-9.800781 21.84375-21.847656s-9.796875-21.847656-21.84375-21.847656zm0 37.695312h-97.140625c-8.738281 0-15.847656-7.109374-15.847656-15.847656 0-8.738281 7.109375-15.851562 15.847656-15.851562h97.140625c8.738281 0 15.84375 7.113281 15.84375 15.851562 0 8.738282-7.105469 15.847656-15.84375 15.847656zm0 0" fill="#3a312a"/><path d="m288.710938 160.546875h-67.554688v209.332031h224.921875v-209.332031zm0 0" fill="#87796f"/><path d="m446.078125 157.546875h-157.367187c-1.65625 0-3 1.34375-3 3s1.34375 3 3 3h154.367187v203.332031h-218.921875v-203.332031h36.558594c1.660156 0 3-1.34375 3-3s-1.339844-3-3-3h-39.558594c-1.65625 0-3 1.34375-3 3v209.332031c0 1.65625 1.34375 3 3 3h224.921875c1.65625 0 3-1.34375 3-3v-209.332031c0-1.65625-1.34375-3-3-3zm0 0" fill="#3a312a"/><path d="m337.777344 190.667969c-41.410156-2.296875-76.839844 29.417969-79.136719 70.828125-2.292969 41.414062 29.421875 76.84375 70.832031 79.136718 41.414063 2.292969 76.84375-29.417968 79.136719-70.832031 2.292969-41.410156-29.417969-76.839843-70.832031-79.132812zm0 0" fill="#d7e057"/><path d="m333.617188 187.5625c-43.0625 0-78.097657 35.039062-78.097657 78.097656 0 43.0625 35.035157 78.097656 78.097657 78.097656s78.09375-35.035156 78.09375-78.097656c0-43.058594-35.03125-78.097656-78.09375-78.097656zm0 150.195312c-39.753907 0-72.097657-32.34375-72.097657-72.097656s32.34375-72.097656 72.097657-72.097656c39.753906 0 72.09375 32.34375 72.09375 72.097656s-32.339844 72.097656-72.09375 72.097656zm0 0" fill="#3a312a"/><path d="m363.609375 265.851562c0-26.28125-13.429687-47.585937-29.992187-47.585937-16.566407 0-29.992188 21.304687-29.992188 47.585937s13.425781 47.589844 29.992188 47.589844c16.5625 0 29.992187-21.308594 29.992187-47.589844zm0 0" fill="#87796f"/><path d="m333.617188 215.265625c-18.191407 0-32.992188 22.691406-32.992188 50.585937 0 27.894532 14.800781 50.589844 32.992188 50.589844 18.191406 0 32.992187-22.695312 32.992187-50.589844 0-27.894531-14.800781-50.585937-32.992187-50.585937zm0 95.175781c-14.882813 0-26.992188-20.003906-26.992188-44.589844 0-24.585937 12.109375-44.585937 26.992188-44.585937 14.882812 0 26.992187 20 26.992187 44.585937 0 24.585938-12.109375 44.589844-26.992187 44.589844zm0 0" fill="#3a312a"/><path d="m336.410156 264.179688-1.222656-1.050782c-6.625-5.699218-10.257812-13.207031-10.230469-21.136718.03125-7.945313 3.730469-15.445313 10.414063-21.113282l.199218-.167968c1.265626-1.070313 1.421876-2.964844.351563-4.230469s-2.964844-1.417969-4.230469-.347657l-.199218.167969c-8.046876 6.824219-12.5 15.941407-12.535157 25.667969-.035156 9.714844 4.339844 18.84375 12.320313 25.710938l1.21875 1.046874c6.65625 5.726563 10.289062 13.265626 10.230468 21.230469-.058593 7.992188-3.824218 15.515625-10.605468 21.179688-1.269532 1.0625-1.4375 2.957031-.375 4.226562.589844.707031 1.445312 1.074219 2.300781 1.074219.679687 0 1.363281-.226562 1.925781-.699219 8.152344-6.8125 12.683594-15.953125 12.753906-25.742187.070313-9.75-4.304687-18.921875-12.316406-25.816406zm0 0" fill="#3a312a"/><path d="m180.171875 221.878906h-164.324219c-7.21875 0-12.929687 6.113282-12.4375 13.316406l12.34375 180.660157c1.265625 18.523437 16.664063 32.90625 35.230469 32.90625h94.050781c18.566406 0 33.964844-14.382813 35.230469-32.90625l12.34375-180.660157c.488281-7.203124-5.21875-13.316406-12.4375-13.316406zm0 0" fill="#fce8cb"/><path d="m191.472656 223.789062c-2.914062-3.121093-7.035156-4.910156-11.300781-4.910156h-45.757813c-1.65625 0-3 1.34375-3 3s1.34375 3 3 3h45.757813c2.652344 0 5.105469 1.066406 6.914063 3.003906 1.8125 1.9375 2.707031 4.464844 2.527343 7.109376l-12.34375 180.65625c-1.152343 16.886718-15.3125 30.113281-32.238281 30.113281h-94.046875c-16.921875 0-31.085937-13.226563-32.238281-30.113281l-12.34375-180.65625c-.179688-2.644532.714844-5.171876 2.527344-7.109376 1.808593-1.9375 4.265624-3.003906 6.914062-3.003906h91.164062c1.660157 0 3-1.34375 3-3s-1.339843-3-3-3h-91.160156c-4.269531 0-8.390625 1.792969-11.304687 4.910156-2.914063 3.121094-4.417969 7.351563-4.125 11.613282l12.339843 180.65625c1.371094 20.019531 18.160157 35.703125 38.226563 35.703125h94.046875c20.066406 0 36.859375-15.683594 38.226562-35.703125l12.34375-180.660156c.289063-4.257813-1.214843-8.492188-4.128906-11.609376zm0 0" fill="#3a312a"/><path d="m6.234375 276.546875 9.519531 139.304687c1.265625 18.527344 16.660156 32.90625 35.230469 32.90625h94.046875c18.570312 0 33.96875-14.378906 35.230469-32.90625l9.519531-139.304687zm0 0" fill="#87796f"/><path d="m191.976562 274.503906c-.570312-.609375-1.363281-.957031-2.195312-.957031h-183.546875c-.828125 0-1.625.347656-2.191406.957031-.566407.605469-.859375 1.421875-.800781 2.25l9.519531 139.304688c1.367187 20.019531 18.160156 35.703125 38.222656 35.703125h94.050781c20.066406 0 36.855469-15.683594 38.222656-35.703125l9.519532-139.304688c.054687-.832031-.234375-1.644531-.800782-2.25zm-14.707031 141.144532c-1.152343 16.886718-15.3125 30.113281-32.238281 30.113281h-94.046875c-16.921875 0-31.085937-13.226563-32.238281-30.113281l-9.300782-136.101563h177.125zm0 0" fill="#3a312a"/><path d="m99.03125 266.277344-32.355469-23.53125c-4.03125-2.929688-9.675781-2.039063-12.605469 1.992187l-23.53125 32.355469c-2.929687 4.03125-2.039062 9.675781 1.992188 12.605469l32.355469 23.53125c4.027343 2.929687 9.675781 2.039062 12.605469-1.992188l23.527343-32.355469c2.933594-4.027343 2.042969-9.671874-1.988281-12.605468zm0 0" fill="#fce8cb"/><path d="m100.792969 263.851562-32.351563-23.53125c-5.363281-3.890624-12.898437-2.707031-16.796875 2.65625l-23.53125 32.351563c-1.886719 2.597656-2.65625 5.777344-2.152343 8.949219.5 3.175781 2.207031 5.960937 4.804687 7.847656l32.355469 23.53125c2.078125 1.515625 4.527344 2.304688 7.046875 2.304688.628906 0 1.265625-.050782 1.902343-.148438 3.171876-.503906 5.960938-2.207031 7.847657-4.804688l23.53125-32.355468c3.898437-5.363282 2.707031-12.898438-2.65625-16.800782zm-2.199219 13.269532-23.527344 32.355468c-1.957031 2.683594-5.730468 3.28125-8.417968 1.328126l-32.355469-23.535157c-1.296875-.945312-2.152344-2.339843-2.40625-3.929687-.25-1.589844.132812-3.183594 1.078125-4.484375l23.53125-32.351563c1.953125-2.6875 5.726562-3.285156 8.417968-1.332031l32.351563 23.53125c2.6875 1.957031 3.28125 5.730469 1.328125 8.417969zm0 0" fill="#3a312a"/><path d="m169.402344 301.082031-39.105469-8.445312c-4.871094-1.050781-9.675781 2.042969-10.726563 6.914062l-8.445312 39.105469c-1.050781 4.871094 2.042969 9.671875 6.914062 10.726562l39.105469 8.441407c4.871094 1.054687 9.675781-2.042969 10.726563-6.914063l8.445312-39.105468c1.054688-4.867188-2.042968-9.671876-6.914062-10.722657zm0 0" fill="#fce8cb"/><path d="m170.035156 298.148438-39.105468-8.445313c-3.136719-.683594-6.355469-.09375-9.054688 1.648437-2.699219 1.738282-4.558594 4.425782-5.238281 7.566407l-8.445313 39.105469c-1.398437 6.480468 2.734375 12.890624 9.214844 14.289062l39.105469 8.445312c.851562.1875 1.710937.277344 2.5625.277344 2.285156 0 4.527343-.65625 6.492187-1.921875 2.699219-1.742187 4.558594-4.429687 5.238282-7.570312l8.445312-39.101563c1.398438-6.480468-2.734375-12.890625-9.214844-14.292968zm3.351563 13.027343-8.445313 39.101563c-.339844 1.574218-1.273437 2.921875-2.625 3.792968-1.351562.871094-2.964844 1.164063-4.535156.824219l-39.105469-8.441406c-3.246093-.707031-5.316406-3.917969-4.617187-7.164063l8.445312-39.105468c.339844-1.570313 1.273438-2.917969 2.625-3.792969.984375-.632813 2.109375-.960937 3.25-.960937.429688 0 .859375.042968 1.285156.136718l39.105469 8.445313c3.246094.703125 5.316407 3.914062 4.617188 7.164062zm0 0" fill="#3a312a"/><path d="m118.476562 403.617188-13.851562-37.53125c-1.726562-4.675782-6.917969-7.066407-11.59375-5.34375l-37.53125 13.851562c-4.675781 1.722656-7.066406 6.914062-5.339844 11.589844l13.847656 37.53125c1.726563 4.675781 6.917969 7.070312 11.59375 5.34375l37.53125-13.851563c4.675782-1.722656 7.066407-6.914062 5.34375-11.589843zm0 0" fill="#fce8cb"/><path d="m121.289062 402.578125-13.851562-37.53125c-2.292969-6.21875-9.222656-9.410156-15.441406-7.117187l-37.535156 13.847656c-6.21875 2.296875-9.414063 9.226562-7.117188 15.445312l13.847656 37.535156c1.792969 4.851563 6.402344 7.863282 11.296875 7.863282 1.375 0 2.78125-.242188 4.148438-.746094l37.53125-13.847656c6.222656-2.300782 9.414062-9.226563 7.121093-15.449219zm-9.195312 9.816406-37.53125 13.851563c-3.125 1.144531-6.589844-.453125-7.738281-3.566406l-13.851563-37.535157c-1.148437-3.113281.449219-6.585937 3.566406-7.738281l37.53125-13.847656c.6875-.253906 1.386719-.375 2.078126-.375 2.453124 0 4.761718 1.511718 5.660156 3.941406l13.851562 37.53125c1.148438 3.117188-.453125 6.589844-3.566406 7.738281zm0 0" fill="#3a312a"/><path d="m191.976562 274.503906c-.570312-.609375-1.363281-.957031-2.195312-.957031h-183.546875c-.828125 0-1.625.347656-2.191406.957031-.566407.605469-.859375 1.421875-.800781 2.25l9.519531 139.304688c1.367187 20.019531 18.160156 35.703125 38.222656 35.703125h94.050781c20.066406 0 36.855469-15.683594 38.222656-35.703125l9.519532-139.304688c.054687-.832031-.234375-1.644531-.800782-2.25zm-14.707031 141.144532c-1.152343 16.886718-15.3125 30.113281-32.238281 30.113281h-94.046875c-16.921875 0-31.085937-13.226563-32.238281-30.113281l-9.300782-136.101563h177.125zm0 0" fill="#3a312a"/><g fill="#ce4e61"><path d="m420.421875 372.878906v48.199219c0 13.601563-11.082031 24.683594-24.660156 24.683594h22.660156c13.597656 0 24.660156-11.082031 24.660156-24.683594v-48.199219zm0 0"/><path d="m386.78125 81.378906h-22.660156c31.039062 0 56.300781 25.261719 56.300781 56.320313v19.839843h22.660156v-19.839843c0-31.058594-25.261719-56.320313-56.300781-56.320313zm0 0"/><path d="m357.460938 43.699219h22.660156v31.679687h-22.660156zm0 0"/></g><path d="m382.179688 6h-22.660157c8.742188 0 15.839844 7.101562 15.839844 15.839844 0 8.738281-7.097656 15.859375-15.839844 15.859375h22.660157c8.742187 0 15.859374-7.121094 15.859374-15.859375 0-8.738282-7.117187-15.839844-15.859374-15.839844zm0 0" fill="#b9bc39"/><path d="m420.421875 163.539062h22.660156v203.339844h-22.660156zm0 0" fill="#6b5b51"/><path d="m187.082031 227.878906c-1.800781-1.9375-4.261719-3-6.902343-3h-19.140626c2.660157 0 5.121094 1.0625 6.921876 3 1.820312 1.941406 2.699218 4.460938 2.519531 7.101563l-2.621094 38.558593h19.121094l2.640625-38.558593c.179687-2.640625-.71875-5.160157-2.539063-7.101563zm0 0" fill="#ccae8b"/><path d="m167.441406 279.539062-1.21875 17.78125 3.816406.820313c3.140626.679687 5.820313 2.539063 7.5625 5.238281 1.738282 2.699219 2.320313 5.921875 1.660157 9.0625l-8.460938 39.097656c-1 4.660157-4.578125 8.101563-8.898437 9.140626l-3.761719 54.960937c-1.140625 16.898437-15.300781 30.121094-32.238281 30.121094h19.136718c16.921876 0 31.082032-13.222657 32.242188-30.121094l9.28125-136.101563zm0 0" fill="#6b5b51"/></svg>