<svg height="496pt" viewBox="0 -1 496 495" width="496pt" xmlns="http://www.w3.org/2000/svg"><path d="m280 342.15625h144v72c0 39.769531-32.230469 72-72 72s-72-32.230469-72-72zm0 0" fill="#b8cbd9"/><path d="m406.207031 342.15625h-126.207031v72c0 22.953125 10.777344 43.34375 27.503906 56.527344 51.59375-18.152344 90.457032-67.75 98.703125-128.527344zm0 0" fill="#e8eff4"/><path d="m280 342.15625h144v32h-144zm0 0" fill="#976947"/><path d="m406.207031 342.15625h-126.207031v32h118.753906c3.4375-10.214844 5.949219-20.914062 7.453125-32zm0 0" fill="#c18e59"/><path d="m216 182.15625h192v64h-192zm0 0" fill="#976947"/><path d="m160 198.15625h56v32h-56zm0 0" fill="#c18e59"/><path d="m248 366.15625c0-41.785156-21.390625-78.496094-53.792969-99.953125-15.984375-10.582031-26.207031-27.894531-26.207031-47.054687v-36.992188h-112l32 32v4.992188c0 19.167968-10.222656 36.480468-26.207031 47.054687-32.402344 21.457031-53.792969 58.167969-53.792969 99.953125 0 66.273438 53.726562 120 120 120s120-53.726562 120-120zm0 0" fill="#b8cbd9"/><path d="m128 486.15625c66.273438 0 120-53.726562 120-120l-10.34375-10.34375c-3.625-3.625-8.535156-5.65625-13.65625-5.65625s-10.03125 2.03125-13.65625 5.65625l-4.6875 4.6875c-3.625 3.625-8.535156 5.65625-13.65625 5.65625s-10.03125-2.03125-13.65625-5.65625l-4.6875-4.6875c-3.625-3.625-8.535156-5.65625-13.65625-5.65625s-10.03125 2.03125-13.65625 5.65625l-4.6875 4.6875c-3.625 3.625-8.535156 5.65625-13.65625 5.65625s-10.03125-2.03125-13.65625-5.65625l-4.6875-4.6875c-3.625-3.625-8.535156-5.65625-13.65625-5.65625s-10.03125 2.03125-13.65625 5.65625l-4.6875 4.6875c-3.625 3.625-8.535156 5.65625-13.65625 5.65625s-10.03125-2.03125-13.65625-5.65625l-4.6875-4.6875c-3.625-3.625-8.535156-5.65625-13.65625-5.65625s-10.03125 2.03125-13.65625 5.65625l-10.34375 10.34375c0 66.273438 53.726562 120 120 120zm0 0" fill="#66acd7"/><path d="m168 219.148438v-36.992188h-112l32 32v4.992188c0 19.167968-10.222656 36.480468-26.207031 47.054687-32.402344 21.457031-53.792969 58.167969-53.792969 99.953125 0 33.457031 13.710938 63.679688 35.800781 85.441406 74.335938-26.984375 129.976563-102.953125 138.902344-195.3125-9.191406-10.128906-14.703125-23.121094-14.703125-37.136718zm0 0" fill="#e8eff4"/><path d="m146.34375 355.8125-4.6875 4.6875c-3.625 3.625-8.535156 5.65625-13.65625 5.65625s-10.03125-2.03125-13.65625-5.65625l-4.6875-4.6875c-3.625-3.625-8.535156-5.65625-13.65625-5.65625s-10.03125 2.03125-13.65625 5.65625l-4.6875 4.6875c-3.625 3.625-8.535156 5.65625-13.65625 5.65625s-10.03125-2.03125-13.65625-5.65625l-4.6875-4.6875c-3.625-3.625-8.535156-5.65625-13.65625-5.65625s-10.03125 2.03125-13.65625 5.65625l-10.34375 10.34375c0 33.457031 13.710938 63.679688 35.800781 85.441406 46.65625-16.9375 85.953125-53.160156 110.960938-100.625-3.144531.886719-6.066407 2.488282-8.417969 4.839844zm0 0" fill="#8bd2f5"/><path d="m85.65625 139.8125-11.3125-11.3125 4.6875-4.6875c5.785156-5.785156 8.96875-13.480469 8.96875-21.65625s-3.183594-15.871094-8.96875-21.65625l-9.375-9.375c-8.808594-8.800781-13.65625-20.511719-13.65625-32.96875s4.847656-24.167969 13.65625-32.96875l4.6875-4.6875 11.3125 11.3125-4.6875 4.6875c-5.785156 5.785156-8.96875 13.480469-8.96875 21.65625s3.183594 15.871094 8.96875 21.65625l9.375 9.375c8.808594 8.800781 13.65625 20.511719 13.65625 32.96875s-4.847656 24.167969-13.65625 32.96875zm0 0"/><path d="m149.65625 163.8125-11.3125-11.3125 4.6875-4.6875c5.785156-5.785156 8.96875-13.480469 8.96875-21.65625s-3.183594-15.871094-8.96875-21.65625l-9.375-9.375c-8.808594-8.800781-13.65625-20.511719-13.65625-32.96875s4.847656-24.167969 13.65625-32.96875l4.6875-4.6875 11.3125 11.3125-4.6875 4.6875c-5.785156 5.785156-8.96875 13.480469-8.96875 21.65625s3.183594 15.871094 8.96875 21.65625l9.375 9.375c8.808594 8.800781 13.65625 20.511719 13.65625 32.96875s-4.847656 24.167969-13.65625 32.96875zm0 0"/><path d="m128 494.15625c-70.574219 0-128-57.425781-128-128 0-42.976562 21.457031-82.832031 57.382812-106.625 14.160157-9.375 22.617188-24.480469 22.617188-40.382812v-1.671876l-29.65625-29.65625c-2.289062-2.289062-2.976562-5.726562-1.734375-8.71875 1.230469-2.992187 4.160156-4.945312 7.390625-4.945312h112c4.425781 0 8 3.582031 8 8v36.992188c0 15.910156 8.457031 31.007812 22.617188 40.390624 35.925781 23.785157 57.382812 63.640626 57.382812 106.617188 0 70.574219-57.425781 128-128 128zm-52.6875-304 18.34375 18.34375c1.503906 1.496094 2.34375 3.535156 2.34375 5.65625v4.992188c0 21.289062-11.136719 41.375-29.792969 53.726562-31.429687 20.816406-50.207031 55.6875-50.207031 93.28125 0 61.757812 50.238281 112 112 112s112-50.242188 112-112c0-37.59375-18.777344-72.464844-50.207031-93.28125-18.65625-12.359375-29.792969-32.4375-29.792969-53.726562v-28.992188zm0 0"/><path d="m192 374.15625c-7.289062 0-14.152344-2.839844-19.3125-8l-4.6875-4.6875c-4.28125-4.273438-11.71875-4.28125-16 0l-4.6875 4.6875c-10.328125 10.320312-28.296875 10.320312-38.625 0l-4.6875-4.6875c-4.28125-4.273438-11.71875-4.28125-16 0l-4.6875 4.6875c-10.328125 10.320312-28.296875 10.320312-38.625 0l-4.6875-4.6875c-4.28125-4.273438-11.71875-4.28125-16 0l-10.34375 10.335938-11.3125-11.3125 10.34375-10.335938c10.328125-10.320312 28.296875-10.320312 38.625 0l4.6875 4.6875c4.28125 4.273438 11.71875 4.28125 16 0l4.6875-4.6875c10.328125-10.320312 28.296875-10.320312 38.625 0l4.6875 4.6875c4.28125 4.273438 11.71875 4.28125 16 0l4.6875-4.6875c10.328125-10.320312 28.296875-10.320312 38.625 0l4.6875 4.6875c4.28125 4.273438 11.71875 4.28125 16 0l4.6875-4.6875c10.328125-10.320312 28.296875-10.320312 38.625 0l10.34375 10.34375-11.3125 11.3125-10.34375-10.34375c-4.28125-4.273438-11.71875-4.28125-16 0l-4.6875 4.6875c-5.160156 5.160156-12.023438 8-19.3125 8zm0 0"/><path d="m216 238.15625h-48v-16h40v-16h-40v-16h48c4.425781 0 8 3.582031 8 8v32c0 4.414062-3.574219 8-8 8zm0 0"/><path d="m408 254.15625h-192c-4.425781 0-8-3.585938-8-8v-64c0-4.417969 3.574219-8 8-8h192c4.425781 0 8 3.582031 8 8v64c0 4.414062-3.574219 8-8 8zm-184-16h176v-48h-176zm0 0"/><path d="m352 494.15625c-44.113281 0-80-35.886719-80-80v-72c0-4.417969 3.574219-8 8-8h144c4.425781 0 8 3.582031 8 8v72c0 44.113281-35.886719 80-80 80zm-64-144v64c0 35.289062 28.710938 64 64 64s64-28.710938 64-64v-64zm0 0"/><path d="m456 430.15625h-32v-16h32c13.230469 0 24-10.769531 24-24s-10.769531-24-24-24h-32v-16h32c22.054688 0 40 17.945312 40 40s-17.945312 40-40 40zm0 0"/><path d="m280 366.15625h144v16h-144zm0 0"/></svg>