<svg id="Fill_out_line" height="512" viewBox="0 0 512 512" width="512" xmlns="http://www.w3.org/2000/svg" data-name="Fill out line"><path d="m488 176v94.05892a81.941 81.941 0 0 1 -24 57.94108 81.941 81.941 0 0 1 -57.9411 24h-6.0589a24 24 0 0 1 -24-24 24 24 0 0 1 24-24 40 40 0 0 0 40-40v-72a32 32 0 0 0 -32-32h-24v-48h40a64 64 0 0 1 64 64z" fill="#2b7cd4"/><path d="m328 112h80v56l-24 24h-56z" fill="#bc8d5d"/><path d="m352.00006 112h-24.00006v80h56l24-24a55.99994 55.99994 0 0 0 -55.99994-56z" fill="#87633e"/><path d="m352 112h-248l48-48h152z" fill="#9bdeff"/><path d="m248 24h-56l8 40h40z" fill="#bc8d5d"/><path d="m240 24-1.7243 8.62158a39.03373 39.03373 0 0 1 -38.27564 31.37842h39.99994l8-40z" fill="#87633e"/><path d="m320 360h-184l-24 128h232z" fill="#87c9ff"/><path d="m152 312h152v48h-152z" fill="#bc8d5d"/><path d="m352 112h-248l32 200h184z" fill="#87c9ff"/><path d="m56 112h48l24 136-104-104z" fill="#b5deff"/><path d="m184 112 16 200h120l32-200z" fill="#3ea7ff"/><path d="m256 312 16-200h80l-32 200z" fill="#2b7cd4"/><path d="m184.235 488 7.765-128h128l24 128z" fill="#3ea7ff"/><path d="m272 488-8-128h56l24 128z" fill="#2b7cd4"/><rect fill="#bc8d5d" height="32" rx="16" width="32" x="120" y="392"/><path d="m352 112h-128a7.99973 7.99973 0 0 1 -7.98-8.53 8.17629 8.17629 0 0 1 8.25-7.47h23.73a31.99139 31.99139 0 0 0 32-32h24z" fill="#8bcde9"/><path d="m184 104a7.99786 7.99786 0 0 1 -8 8h-72l16-16h56a7.98906 7.98906 0 0 1 8 8z" fill="#8bcde9"/><path d="m424 104h-68.686l-45.65726-45.65723a8.00035 8.00035 0 0 0 -5.65674-2.34277h-46.24139l6.08612-30.43066a8.00012 8.00012 0 0 0 -7.84473-9.56934h-56a8.00012 8.00012 0 0 0 -7.84473 9.56934l6.08612 30.43066h-46.24139a8.00035 8.00035 0 0 0 -5.65674 2.34277l-45.65726 45.65723h-44.686a8.00035 8.00035 0 0 0 -5.65674 2.34277l-32 32a8.00063 8.00063 0 0 0 0 11.31446l99.50025 99.49977 10.25708 64.10669a8.00048 8.00048 0 0 0 7.89941 6.73631h8v32h-8a8.00019 8.00019 0 0 0 -7.86279 6.52539l-5.54621 29.57861a23.96157 23.96157 0 0 0 -6.29486 33.57471l-12.15893 64.84668a7.99925 7.99925 0 0 0 7.86279 9.47461h232a7.99925 7.99925 0 0 0 7.86279-9.47461l-24-128a8.00019 8.00019 0 0 0 -7.86279-6.52539h-8v-32h8a8.00048 8.00048 0 0 0 7.89941-6.73633l18.1222-113.26367h37.97839a8.00035 8.00035 0 0 0 5.65674-2.34277l24-24a7.99422 7.99422 0 0 0 2.22284-4.32178 24.03692 24.03692 0 0 1 16.12042 22.66455v72a32.03635 32.03635 0 0 1 -32 32 32 32 0 0 0 0 64h6.05908a89.94068 89.94068 0 0 0 89.94092-89.94141v-94.05859a72.08124 72.08124 0 0 0 -72-72zm-214.2417-72h36.4834l-4.80029 24h-26.88282zm-54.44482 40h145.373l31.99964 32h-209.37228zm52.07214 232-14.72-184h70.6687l-14.72 184zm-172.07214-160 24-24h37.86493l16.355 102.21924zm78.06836-24h63.23254l14.72 184h-48.5126zm14.61816 288a8 8 0 1 1 8 8 8.00917 8.00917 0 0 1 -8-8zm2.74933 23.41455a23.99845 23.99845 0 1 0 8.83929-47.14551l3.05054-16.26904h40.86084l-6.79407 112h-55.06628zm125.73511-63.41455 7 112h-70.74909l6.79407-112zm77.87591 112h-54.84479l-7-112h40.84479zm-38.36035-128h-136v-32h136zm17.17822-48h-48.51257l14.72-184h63.23254zm86.82178-139.31348-19.31348 19.31348h-32.10492l10.24-64h41.1784zm80 105.37207a73.94157 73.94157 0 0 1 -73.94092 73.94141h-6.05908a16 16 0 0 1 0-32 48.054 48.054 0 0 0 48-48v-72a40.068 40.068 0 0 0 -32-39.19507v-32.80493h8a56.06322 56.06322 0 0 1 56 56z"/></svg>