<svg height="481pt" viewBox="-36 0 481 481.38687" width="481pt" xmlns="http://www.w3.org/2000/svg"><path d="m136.195312 41.386719h208l-80 160h-48zm0 0" fill="#f4c277"/><path d="m178.441406 125.890625 37.753906 75.496094h48l80-160h-20.386718c-42.949219 36.726562-92.199219 65.355469-145.367188 84.503906zm0 0" fill="#f1b355"/><path d="m160.195312 297.386719h160v80c0 35.347656-28.65625 64-64 64h-32c-35.347656 0-64-28.652344-64-64zm0 0" fill="#f1b355"/><path d="m228.882812 236.699219 11.3125-11.3125 11.308594 11.3125c3.003906 3 4.6875 7.070312 4.691406 11.3125v1.375c0 8.835937-7.164062 16-16 16-8.839843 0-16-7.164063-16-16v-1.375c0-4.242188 1.683594-8.3125 4.6875-11.3125zm0 0" fill="#7d605a"/><path d="m152.195312 41.386719-5.265624-10.535157c-1.535157-3.078124-.929688-6.792968 1.503906-9.226562 2.429687-2.429688 6.144531-3.035156 9.222656-1.503906l.226562.105468c6.15625 3.078126 13.59375 1.875 18.460938-2.992187l4.539062-4.535156c6.246094-6.246094 16.375-6.246094 22.621094 0l1.378906 1.375c6.246094 6.246093 16.375 6.246093 22.621094 0l1.378906-1.375c6.246094-6.246094 16.375-6.246094 22.621094 0l1.378906 1.375c6.246094 6.246093 16.375 6.246093 22.621094 0l1.378906-1.375c6.246094-6.246094 16.375-6.246094 22.621094 0l4.539063 4.535156c4.867187 4.867187 12.304687 6.070313 18.460937 2.992187l.226563-.105468c3.078125-1.53125 6.792969-.925782 9.222656 1.503906 2.433594 2.433594 3.039063 6.148438 1.503906 9.226562l-5.261719 10.535157zm0 0" fill="#fcf0dd"/><path d="m56.195312 73.386719h64v32h-64zm0 0" fill="#999"/><path d="m40.195312 41.386719h32v96h-32zm0 0" fill="#808080"/><path d="m191.007812 432.035156c9.992188 6.113282 21.472657 9.347656 33.1875 9.351563h32c35.34375 0 64-28.652344 64-64v-80h-39.417968c-21.886719 49.75-52.261719 95.3125-89.769532 134.648437zm0 0" fill="#f09c57"/><path d="m24.195312 441.386719h376v32h-376zm0 0" fill="#808080"/><path d="m238.242188 473.386719h161.953124v-32h-95.859374c-21.152344 12.390625-43.253907 23.089843-66.09375 32zm0 0" fill="#666"/><path d="m400.195312 433.386719h-98.851562c5.667969-4.566407 10.613281-9.960938 14.671875-16h4.179687c30.910157-.035157 55.960938-25.085938 56-56v-16c-.027343-22.082031-17.921874-39.972657-40-40h-8v-8c0-4.417969-3.582031-8-8-8h-160c-4.421874 0-8 3.582031-8 8v80c.003907 21.769531 9.875 42.363281 26.847657 56h-114.847657v-288h8c4.417969 0 8-3.582031 8-8v-24h16v32h83.054688l29.742188 59.574219c1.363281 2.726562 4.15625 4.441406 7.203124 4.425781h48c3.042969.015625 5.835938-1.699219 7.199219-4.425781l29.742188-59.574219h3.058593c4.417969 0 8-3.582031 8-8-.035156-2.699219-1.449218-5.195313-3.753906-6.609375l42.953125-85.816406c1.242188-2.484376 1.105469-5.4375-.363281-7.800782-1.46875-2.359375-4.058594-3.789062-6.835938-3.773437h-3.203124c2.636718-6.1875 1.09375-13.363281-3.851563-17.921875-4.941406-4.558594-12.21875-5.515625-18.171875-2.390625-3.082031 1.542969-6.804688.9375-9.238281-1.503907l-4.527344-4.527343c-9.375-9.371094-24.566406-9.371094-33.9375 0l-1.375 1.367187c-3.125 3.125-8.1875 3.125-11.3125 0l-1.375-1.375c-9.375-9.371094-24.566406-9.371094-33.9375 0l-1.375 1.367188c-3.125 3.125-8.1875 3.125-11.3125 0l-1.375-1.375c-9.375-9.371094-24.566406-9.371094-33.9375 0l-4.535156 4.527344c-2.507813 2.476562-6.332031 3.039062-9.449219 1.390624-5.96875-3.046874-13.207031-2.027343-18.101562 2.550782-4.890626 4.578125-6.390626 11.734375-3.746094 17.890625h-3.238282c-2.773437 0-5.351562 1.433593-6.808593 3.792969-1.460938 2.355468-1.59375 5.300781-.351563 7.78125l42.214844 84.425781h-59.054688v-16h8c4.417969 0 8-3.582031 8-8v-32c0-4.417969-3.582031-8-8-8h-40v-24c0-4.417969-3.582031-8-8-8h-8v-16h16v-16h-48v16h16v16h-8c-4.421874 0-8 3.582031-8 8v40h-16v-16h-16v48h16v-16h16v40c0 4.417969 3.578126 8 8 8h8v288h-24c-4.421874 0-8 3.582031-8 8v32c0 4.417969 3.578126 8 8 8h376c4.417969 0 8-3.582031 8-8v-32c0-4.417969-3.582031-8-8-8zm-203.058593-288h18.5625l7.199219 48h-1.769532zm51.359375 0-7.199219 48h-2.207031l-7.199219-48zm-19.015625-16-12-80h45.425781l-12 80zm29.769531 64h-1.769531l7.199219-48h18.5625zm32-64h-24.160156l12-80h52.160156zm-136.945312-102c9.242187 4.621093 20.398437 2.808593 27.703124-4.496094l4.53125-4.527344c3.121094-3.125 8.1875-3.125 11.308594 0l1.378906 1.375c9.371094 9.371094 24.5625 9.371094 33.933594 0l1.378906-1.367187c3.121094-3.125 8.1875-3.125 11.308594 0l1.378906 1.375c9.371094 9.371094 24.5625 9.371094 33.933594 0l1.378906-1.367188c3.121094-3.125 8.1875-3.125 11.308594 0l4.53125 4.535156c7.378906 7.351563 18.648438 9.121094 27.925782 4.386719l-3.054688 6.085938h-166.039062zm-5.167969 22h52.160156l12 80h-24.160156zm-36.941407 32v16h-32v-16zm-64 0v-32h16v80h-16zm288 240c13.253907 0 24 10.746093 24 24v16c-.066406 20.5-15.652343 37.621093-36.058593 39.601562 2.671875-7.585937 4.042969-15.5625 4.058593-23.601562v-56zm-168 56v-72h144v72c-.039062 30.914062-25.089843 55.964843-56 56h-32c-30.914062-.035157-55.964843-25.085938-56-56zm224 88h-360v-16h360zm0 0"/><path d="m234.539062 219.730469-11.3125 11.3125c-4.519531 4.492187-7.054687 10.605469-7.03125 16.976562v1.367188c0 13.253906 10.742188 24 24 24 13.253907 0 24-10.746094 24-24v-1.367188c.015626-6.371093-2.519531-12.484375-7.035156-16.976562l-11.3125-11.3125c-3.121094-3.121094-8.1875-3.121094-11.308594 0zm13.65625 29.65625c0 4.417969-3.582031 8-8 8-4.421874 0-8-3.582031-8-8v-1.367188c-.003906-2.125.839844-4.164062 2.34375-5.664062l5.65625-5.65625 5.652344 5.65625c1.503906 1.5 2.347656 3.539062 2.347656 5.664062zm0 0"/></svg>