<svg id="Layer_2" height="512" viewBox="0 0 128 128" width="512" xmlns="http://www.w3.org/2000/svg" data-name="Layer 2"><path d="m83.336 56.086v-12.25h23.679v-16.088h-12.991l-10.008 10.008h-40.032l-10.008-10.008h-12.991v79.585h86.03v-51.247z" fill="#efebe9"/><path d="m112.5 27.748h-18.476l-10.008 10.008h-40.032l-10.008-10.008h-18.476v-25.998h97z" fill="#a1887f"/><path d="m112.5 27.748h-18.476l-10.008 10.008h-40.032l-10.008-10.008h-18.476v-25.998h97z" fill="#a1887f"/><path d="m15.5 107.333h97v18.917h-97z" fill="#fee46f"/><path d="m107.015 107.333h-86.03l10.008-9.708h66.014z" fill="#a1887f"/><path d="m70.005 97.625h-12.005a23.633 23.633 0 0 1 -7.5-17.265v-1.86h27v1.86a23.633 23.633 0 0 1 -7.495 17.265z" fill="#4570a1"/><path d="m80.687 93.292h-6a1.75 1.75 0 1 1 0-3.5h6a1.257 1.257 0 0 0 1.224-.994l.743-3.541a1.251 1.251 0 0 0 -1.224-1.507h-3.93a1.75 1.75 0 0 1 0-3.5h3.93a4.753 4.753 0 0 1 4.65 5.726l-.744 3.541a4.772 4.772 0 0 1 -4.649 3.775z" fill="#4570a1"/><path d="m52.778 37.756h22.445v24.411h-22.445z" fill="#4570a1"/><path d="m83.336 43.836h29.164v12.25h-29.164z" fill="#fee46f"/><path d="m75.222 46.667h8.114v7.083h-8.114z" fill="#a1887f"/><path d="m57.417 62.167h13.166a0 0 0 0 1 0 0v3.625a4 4 0 0 1 -4 4h-5.166a4 4 0 0 1 -4-4v-3.625a0 0 0 0 1 0 0z" fill="#a1887f"/><path d="m38.118 11.75v5.998l10.008 10.008h31.748l10.008-10.008v-5.998z" fill="#fcd2ae"/><path d="m96.594 11.75h8.901v5.75h-8.901z" fill="#fcd2ae"/><path d="m22.506 11.75h8.901v5.75h-8.901z" fill="#fcd2ae"/><g fill="#271800"><path d="m112.5 29.5a1.75 1.75 0 0 0 1.75-1.75v-26a1.75 1.75 0 0 0 -1.75-1.75h-97a1.75 1.75 0 0 0 -1.75 1.75v26a1.75 1.75 0 0 0 1.75 1.75h3.735v12.333a1.75 1.75 0 0 0 3.5 0v-12.333h10.516l9.5 9.5a1.75 1.75 0 0 0 1.237.513h7.044v22.654a1.75 1.75 0 0 0 1.75 1.75h2.889v1.875a5.756 5.756 0 0 0 5.75 5.75h5.166a5.756 5.756 0 0 0 5.75-5.75v-1.875h2.889a1.75 1.75 0 0 0 1.75-1.75v-6.667h4.614v.586a1.75 1.75 0 0 0 1.75 1.75h21.929v45.364l-7.04-6.829a1.747 1.747 0 0 0 -1.218-.494h-23.063a25.3 25.3 0 0 0 1.744-2.583h5a4.772 4.772 0 0 0 4.649-3.775l.744-3.541a4.753 4.753 0 0 0 -4.65-5.726h-2.185v-1.752a1.75 1.75 0 0 0 -1.75-1.75h-27a1.75 1.75 0 0 0 -1.75 1.75v1.86a25.481 25.481 0 0 0 5.3 15.515h-23.057a1.747 1.747 0 0 0 -1.218.494l-7.04 6.829v-32.031a1.75 1.75 0 0 0 -3.5 0v34.416h-3.735a1.75 1.75 0 0 0 -1.75 1.75v18.917a1.75 1.75 0 0 0 1.75 1.75h97a1.75 1.75 0 0 0 1.75-1.75v-18.917a1.75 1.75 0 0 0 -1.75-1.75h-3.735v-47.747h3.735a1.75 1.75 0 0 0 1.75-1.75v-12.25a1.75 1.75 0 0 0 -1.75-1.75h-3.735v-12.586zm-30.1 54.712a1.231 1.231 0 0 1 .254 1.045l-.743 3.543a1.257 1.257 0 0 1 -1.224.994h-3.271a25.451 25.451 0 0 0 1.6-6.042h2.414a1.229 1.229 0 0 1 .97.46zm-30.15-3.852v-.11h23.5v.11a21.963 21.963 0 0 1 -6.45 15.515h-10.6a21.963 21.963 0 0 1 -6.45-15.515zm-20.55 19.015h64.6l6.4 6.208h-77.4zm79.05 25.125h-93.5v-15.417h93.5zm-75.537-97.989a1.75 1.75 0 0 0 -1.237-.511h-16.726v-22.5h93.5v22.5h-16.726a1.75 1.75 0 0 0 -1.237.513l-9.5 9.5h-38.578zm38.259 13v7.81l-9.472 4.953-9.472-4.958v-7.81zm-4.639 26.281a2.253 2.253 0 0 1 -2.25 2.25h-5.166a2.253 2.253 0 0 1 -2.25-2.25v-1.875h9.666zm4.639-5.375h-18.944v-9.15l8.66 4.534a1.756 1.756 0 0 0 1.624 0l8.66-4.534zm3.5-8.417v-3.583h4.614v3.583zm33.778 2.336h-25.664v-8.75h25.664zm-5.485-12.25h-21.929a1.75 1.75 0 0 0 -1.75 1.75v1.081h-4.614v-5.411h7.044a1.75 1.75 0 0 0 1.237-.513l9.5-9.5h10.516z"/><path d="m20.985 60.617a1.75 1.75 0 0 0 1.75-1.75v-4.734a1.75 1.75 0 1 0 -3.5 0v4.734a1.75 1.75 0 0 0 1.75 1.75z"/><path d="m81.624 27.756a1.75 1.75 0 0 0 -1.75-1.75h-31.023l-8.983-8.983v-3.523h48.264v3.523l-1.492 1.493a1.749 1.749 0 0 0 2.474 2.474l2-2a1.75 1.75 0 0 0 .513-1.237v-6a1.75 1.75 0 0 0 -1.745-1.753h-51.764a1.75 1.75 0 0 0 -1.75 1.75v6a1.75 1.75 0 0 0 .513 1.237l10.008 10.006a1.75 1.75 0 0 0 1.237.513h31.748a1.75 1.75 0 0 0 1.75-1.75z"/><path d="m96.594 19.25h8.9a1.75 1.75 0 0 0 1.75-1.75v-5.75a1.75 1.75 0 0 0 -1.744-1.75h-8.9a1.749 1.749 0 0 0 -1.75 1.75v5.75a1.749 1.749 0 0 0 1.744 1.75zm1.75-5.75h5.4v2.25h-5.4z"/><path d="m31.406 10h-8.9a1.75 1.75 0 0 0 -1.75 1.75v5.75a1.75 1.75 0 0 0 1.75 1.75h8.9a1.749 1.749 0 0 0 1.75-1.75v-5.75a1.749 1.749 0 0 0 -1.75-1.75zm-1.75 5.75h-5.4v-2.25h5.4z"/></g></svg>