<?xml version="1.0" encoding="iso-8859-1"?>
<!-- Generator: Adobe Illustrator 19.0.0, SVG Export Plug-In . SVG Version: 6.00 Build 0)  -->
<svg version="1.1" id="Layer_1" xmlns="http://www.w3.org/2000/svg" xmlns:xlink="http://www.w3.org/1999/xlink" x="0px" y="0px"
	 viewBox="0 0 512 512" style="enable-background:new 0 0 512 512;" xml:space="preserve">
<g>
	<path style="fill:#296B94;" d="M201.532,8.17c12.037,0,21.787,9.75,21.787,21.787s-9.75,21.787-21.787,21.787
		c-12.037,0-21.787-9.75-21.787-21.787S189.495,8.17,201.532,8.17z"/>
	<rect x="313.192" y="438.468" style="fill:#296B94;" width="33.694" height="32.681"/>
</g>
<path style="fill:#51C0C2;" d="M417.4,245.618c17.092,24.827,26.515,57.529,26.515,92.084s-9.423,67.257-26.515,92.084
	c-18.388,26.668-43.433,41.363-70.514,41.363v-32.681c16.014,0,31.504-9.674,43.596-27.234
	c13.388-19.412,20.752-45.524,20.752-73.532c0-27.997-7.364-54.119-20.752-73.532c-12.092-17.561-27.583-27.234-43.596-27.234
	v-32.681C373.967,204.255,399.012,218.951,417.4,245.618z"/>
<rect x="313.192" y="204.255" style="fill:#296B94;" width="33.694" height="32.681"/>
<path style="fill:#C8FEFF;" d="M68.085,171.574l21.787,32.681V503.83h223.319V171.574H68.085z M280.511,471.149H122.553V337.702
	h157.957V471.149z"/>
<path style="fill:#51C0C2;" d="M201.532,84.633c-61.582,0-111.518,38.901-111.66,86.942h223.319
	C313.05,123.534,263.114,84.633,201.532,84.633z"/>
<polygon style="fill:#8E4238;" points="201.532,337.702 280.511,337.702 280.511,471.149 122.553,471.149 122.553,337.702 "/>
<path style="fill:#700D00;" d="M424.124,240.987c-19.953-28.956-47.385-44.902-77.242-44.902h-25.519v-24.511
	c0-0.032-0.004-0.062-0.004-0.094c-0.194-50.239-49.499-91.45-111.655-94.796V58.773c12.558-3.567,21.787-15.13,21.787-28.816
	C231.49,13.438,218.051,0,201.532,0s-29.957,13.438-29.957,29.957c0,13.686,9.229,25.249,21.787,28.816v17.911
	c-58.79,3.165-106.078,40.205-111.192,86.72H68.085c-3.013,0-5.782,1.658-7.204,4.315c-1.422,2.657-1.266,5.88,0.406,8.387
	l20.415,30.623v30.207c0,4.512,3.658,8.17,8.17,8.17c4.512,0,8.17-3.658,8.17-8.17v-32.681c0-1.612-0.477-3.19-1.373-4.532
	l-13.319-19.979h4.73c0.577,0.13,1.175,0.204,1.791,0.204c0.615,0,1.214-0.074,1.791-0.204h101.698v149.787h-70.809
	c-4.512,0-8.17,3.658-8.17,8.17v133.447c0,4.512,3.658,8.17,8.17,8.17h157.957c4.512,0,8.17-3.658,8.17-8.17V370.383
	c0-4.512-3.658-8.17-8.17-8.17c-4.512,0-8.17,3.658-8.17,8.17v92.596H130.724V345.872h62.638v84.426h-29.957
	c-4.512,0-8.17,3.658-8.17,8.17c0,4.512,3.658,8.17,8.17,8.17h76.255c4.512,0,8.17-3.658,8.17-8.17c0-4.512-3.658-8.17-8.17-8.17
	h-29.957v-84.426h70.809c4.512,0,8.17-3.658,8.17-8.17s-3.658-8.17-8.17-8.17h-70.809V179.745h95.319V495.66H98.043V269.617
	c0-4.512-3.658-8.17-8.17-8.17c-4.512,0-8.17,3.658-8.17,8.17V503.83c0,4.512,3.658,8.17,8.17,8.17h223.319
	c4.512,0,8.17-3.658,8.17-8.17v-24.511h25.522c29.857,0,57.288-15.947,77.241-44.902c18.031-26.17,27.961-60.516,27.961-96.715
	C452.085,301.505,442.156,267.157,424.124,240.987z M346.883,430.298h-25.522V245.106h25.519c13.25,0,26.346,8.415,36.876,23.696
	c12.45,18.068,19.307,42.537,19.307,68.9c0,26.364-6.856,50.833-19.306,68.9C373.23,421.883,360.133,430.298,346.883,430.298z
	 M338.711,212.426v16.34h-17.349v-16.34H338.711z M187.915,29.957c0-7.509,6.108-13.617,13.617-13.617s13.617,6.108,13.617,13.617
	s-6.108,13.617-13.617,13.617S187.915,37.466,187.915,29.957z M201.532,92.799c53.358,0,97.411,30.978,102.908,70.605H201.543
	c-0.021,0-102.919,0-102.919,0C104.121,123.778,148.174,92.799,201.532,92.799z M321.362,446.638h17.351v16.34h-17.351V446.638z
	 M410.669,425.145c-14.913,21.641-34.423,34.649-55.616,37.314v-16.521c15.752-2.691,30.489-13.126,42.16-30.064
	c14.311-20.768,22.191-48.529,22.191-78.172c0-29.64-7.882-57.403-22.192-78.17c-11.671-16.938-26.409-27.373-42.16-30.064v-16.522
	c21.192,2.665,40.703,15.672,55.616,37.314c16.172,23.469,25.077,54.525,25.077,87.443
	C435.745,370.622,426.84,401.676,410.669,425.145z"/>
<g>
</g>
<g>
</g>
<g>
</g>
<g>
</g>
<g>
</g>
<g>
</g>
<g>
</g>
<g>
</g>
<g>
</g>
<g>
</g>
<g>
</g>
<g>
</g>
<g>
</g>
<g>
</g>
<g>
</g>
</svg>
