<svg height="512" viewBox="0 0 60 60" width="512" xmlns="http://www.w3.org/2000/svg"><g id="Page-1" fill="none" fill-rule="evenodd"><g id="014---Newspaper-and-Coffee" fill-rule="nonzero"><g id="Icons_copy" transform="translate(1 1)"><path id="Shape" d="m30 27c0-.5522847.4477153-1 1-1h14v-24c0-1.1045695-.8954305-2-2-2h-32c-1.1045695 0-2 .8954305-2 2v51.5c.00266286 1.1942885-.47058776 2.340429-1.31507939 3.1849206s-1.99063206 1.3177423-3.18492061 1.3150906l36.86-.0000112c2.0080364-.005494 3.634506-1.6319636 3.64-3.64v-4c-.9386503.4377069-1.9644431.6565427-3 .64h-5c-3.8659932 0-7-3.1340068-7-7zm-4 26c0 .5522847-.4477153 1-1 1h-11c-.5522847 0-1-.4477153-1-1v-9c0-.5522847.4477153-1 1-1h11c.5522847 0 1 .4477153 1 1zm0-39c0 .5522847-.4477153 1-1 1h-11c-.5522847 0-1-.4477153-1-1v-9c0-.55228475.4477153-1 1-1h11c.5522847 0 1 .44771525 1 1z" fill="#f5f5f5"/><g fill="#cfd8dc"><path id="Shape" d="m31 26h-3c-.5522847 0-1 .4477153-1 1v17c0 3.8659932 3.1340068 7 7 7h3c-3.8659932 0-7-3.1340068-7-7v-17c0-.5522847.4477153-1 1-1z"/><path id="Shape" d="m42 54.36c-.005494 2.0080364-1.6319636 3.634506-3.64 3.64h3c2.0080364-.005494 3.634506-1.6319636 3.64-3.64v-4c-.9386503.4377069-1.9644431.6565427-3 .64z"/><path id="Shape" d="m43 0h-3c1.1045695 0 2 .8954305 2 2v24h3v-24c0-1.1045695-.8954305-2-2-2z"/><path id="Shape" d="m9 31v22.5c0 2.4852814-2.01471863 4.5-4.5 4.5s-4.5-2.0147186-4.5-4.5v-20.5c0-1.1045695.8954305-2 2-2z"/></g><path id="Shape" d="m6 31v22.5c.00064823 1.9042965-1.2026182 3.6009021-3 4.23.48169983.1720639.98853567.2632944 1.5.27 1.19428855.0026629 2.34042898-.4705878 3.18492061-1.3150794s1.31774225-1.9906321 1.31507939-3.1849206l.00001118-22.5z" fill="#7f8e94"/><rect id="Rectangle-path" fill="#02a9f4" height="11" rx="1" width="13" x="13" y="4"/><path id="Shape" d="m25 4h-3c.5522847 0 1 .44771525 1 1v9c0 .5522847-.4477153 1-1 1h3c.5522847 0 1-.4477153 1-1v-9c0-.55228475-.4477153-1-1-1z" fill="#0377bc"/><rect id="Rectangle-path" fill="#02a9f4" height="11" rx="1" width="13" x="13" y="43"/><path id="Shape" d="m25 43h-3c.5522847 0 1 .4477153 1 1v9c0 .5522847-.4477153 1-1 1h3c.5522847 0 1-.4477153 1-1v-9c0-.5522847-.4477153-1-1-1z" fill="#0377bc"/><path id="Shape" d="m49 31v13c-.0017587 2.702126-1.558607 5.1619463-4 6.32-.9353997.4515045-1.961341.6840512-3 .68h-5c-3.8659932 0-7-3.1340068-7-7v-13z" fill="#f44335"/><path id="Shape" d="m46 31v13c-.0017587 2.702126-1.558607 5.1619463-4 6.32-.9353997.4515045-1.961341.6840512-3 .680052l3-.000052c1.038659.0040512 2.0646003-.2284955 3-.68 2.441393-1.1580537 3.9982413-3.617874 4-6.32v-13z" fill="#c81e1e"/><path id="Shape" d="m49 27v4h-19v-4c0-.5522847.4477153-1 1-1h17c.5522847 0 1 .4477153 1 1z" fill="#ff9801"/><path id="Shape" d="m48 26h-3c.5522847 0 1 .4477153 1 1v4h3v-4c0-.5522847-.4477153-1-1-1z" fill="#f57c00"/><path id="Shape" d="m58 36.5c0 4.1421356-3.3578644 7.5-7.5 7.5h-1.5v-4h1.5c1.9329966 0 3.5-1.5670034 3.5-3.5s-1.5670034-3.5-3.5-3.5h-1.5v-4h1.5c4.1421356 0 7.5 3.3578644 7.5 7.5z" fill="#ff5722"/></g><g id="Layer_2"><g fill="#000"><path id="Shape" d="m28 6c0-1.1045695-.8954305-2-2-2h-11c-1.1045695 0-2 .8954305-2 2v9c0 1.1045695.8954305 2 2 2h11c1.1045695 0 2-.8954305 2-2zm-13 9v-9h11v9z"/><path id="Shape" d="m27 24h-13c-.5522847 0-1 .4477153-1 1s.4477153 1 1 1h13c.5522847 0 1-.4477153 1-1s-.4477153-1-1-1z"/><path id="Shape" d="m27 19h-13c-.5522847 0-1 .4477153-1 1s.4477153 1 1 1h13c.5522847 0 1-.4477153 1-1s-.4477153-1-1-1z"/><path id="Shape" d="m27 29h-13c-.5522847 0-1 .4477153-1 1s.4477153 1 1 1h13c.5522847 0 1-.4477153 1-1s-.4477153-1-1-1z"/><path id="Shape" d="m27 34h-13c-.5522847 0-1 .4477153-1 1s.4477153 1 1 1h13c.5522847 0 1-.4477153 1-1s-.4477153-1-1-1z"/><path id="Shape" d="m27 39h-13c-.5522847 0-1 .4477153-1 1s.4477153 1 1 1h13c.5522847 0 1-.4477153 1-1s-.4477153-1-1-1z"/><path id="Shape" d="m26 43h-11c-1.1045695 0-2 .8954305-2 2v9c0 1.1045695.8954305 2 2 2h11c1.1045695 0 2-.8954305 2-2v-9c0-1.1045695-.8954305-2-2-2zm-11 11v-9h11v9z"/><path id="Shape" d="m51.5 29h-.5v-1c0-1.1045695-.8954305-2-2-2h-17c-1.1045695 0-2 .8954305-2 2v17c0 4.418278 3.581722 8 8 8h5c.6755617-.0027844 1.3478834-.0935479 2-.27v2.63c0 1.4580317-1.1819683 2.64-2.64 2.64h-32.62c.8174775-.9827905 1.2634731-2.2216672 1.26-3.5v-51.5c0-.55228475.4477153-1 1-1h32c.5522847 0 1 .44771525 1 1v4c0 .55228475.4477153 1 1 1s1-.44771525 1-1v-4c0-1.65685425-1.3431458-3-3-3h-32c-1.6568542 0-3 1.34314575-3 3v28h-6c-1.65685425 0-3 1.3431458-3 3v20.5c.0055037 3.0352835 2.46471651 5.4944963 5.5 5.5h36.86c2.5626012 0 4.64-2.0773988 4.64-4.64v-3.44c2.1625806-1.2513605 3.6163325-3.441236 3.93-5.92h.57c4.6944204 0 8.5-3.8055796 8.5-8.5s-3.8055796-8.5-8.5-8.5zm-49.5 25.5v-20.5c0-.5522847.44771525-1 1-1h6v21.5c-.00000003 1.9329966-1.5670034 3.4999999-3.5 3.4999999s-3.49999997-1.5670033-3.5-3.4999999zm49-19.5h.5c1.3807119 0 2.5 1.1192881 2.5 2.5s-1.1192881 2.5-2.5 2.5h-.5zm-2-7v3h-17v-3zm-6 23h-5c-3.3137085 0-6-2.6862915-6-6v-12h17v12c0 3.3137085-2.6862915 6-6 6zm8.5-7h-.5v-2h.5c2.4852813-.0000001 4.4999999-2.0147187 4.4999999-4.5s-2.0147186-4.4999999-4.4999999-4.5h-.5v-2h.5c3.5898509 0 6.5 2.9101491 6.5 6.5s-2.9101491 6.5-6.5 6.5z"/></g><path id="Shape" d="m38 47c-.5397267.0324436-1.0675039-.1678295-1.4498372-.5501628s-.5826064-.9101105-.5501628-1.4498372c0-.5522847-.4477153-1-1-1s-1 .4477153-1 1c-.0307097 1.0699851.3808482 2.1053413 1.1377534 2.8622466.7569053.7569052 1.7922615 1.1684631 2.8622466 1.1377534.5522847 0 1-.4477153 1-1s-.4477153-1-1-1z" fill="#f5f5f5"/><path id="Shape" d="m37 17c-.0359681-1.0530829-.51101-2.0430558-1.31-2.73-.3926936-.3122579-.6417238-.7706178-.69-1.27.0482762-.4993822.2973064-.9577421.69-1.27.4031679-.3810765.4210765-1.0168321.04-1.42-.3810765-.40316787-1.0168321-.42107648-1.42-.04-.79899.6869442-1.2740319 1.6769171-1.31 2.73.0371804 1.0527849.512001 2.0422966 1.31 2.73.3926936.3122579.6417238.7706178.69 1.27-.0482762.4993822-.2973064.9577421-.69 1.27-.79899.6869442-1.2740319 1.6769171-1.31 2.73.0371804 1.0527849.512001 2.0422966 1.31 2.73.1943558.1828579.4537357.2804492.7204246.2710588.2666889-.0093905.5185623-.1249837.6995754-.3210588.3877236-.3900375.3877236-1.0199625 0-1.41-.407708-.3048607-.6717708-.7642577-.73-1.27.0482762-.4993822.2973064-.9577421.69-1.27.797999-.6877034 1.2728196-1.6772151 1.31-2.73z" fill="#000"/><path id="Shape" d="m43 17c-.0359681-1.0530829-.51101-2.0430558-1.31-2.73-.3926936-.3122579-.6417238-.7706178-.69-1.27.0482762-.4993822.2973064-.9577421.69-1.27.2608039-.2465133.3702833-.6134381.2871985-.9625575s-.3461113-.6273939-.69-.73c-.3438886-.10260619-.7163946-.0139558-.9771985.2325575-.79899.6869442-1.2740319 1.6769171-1.31 2.73.0371804 1.0527849.512001 2.0422966 1.31 2.73.3926936.3122579.6417238.7706178.69 1.27-.0482762.4993822-.2973064.9577421-.69 1.27-.79899.6869442-1.2740319 1.6769171-1.31 2.73.0371804 1.0527849.512001 2.0422966 1.31 2.73.1943558.1828579.4537357.2804492.7204246.2710588.2666889-.0093905.5185623-.1249837.6995754-.3210588.3877236-.3900375.3877236-1.0199625 0-1.41-.407708-.3048607-.6717708-.7642577-.73-1.27.0482762-.4993822.2973064-.9577421.69-1.27.797999-.6877034 1.2728196-1.6772151 1.31-2.73z" fill="#000"/><path id="Shape" d="m47.73 10.31c-.1877666-.1893127-.4433625-.2957983-.71-.2957983s-.5222334.1064856-.71.2957983c-.7890207.6775852-1.2630741 1.6510229-1.31 2.69.0371804 1.0527849.512001 2.0422966 1.31 2.73.3926936.3122579.6417238.7706178.69 1.27-.0482762.4993822-.2973064.9577421-.69 1.27-.79899.6869442-1.2740319 1.6769171-1.31 2.73.0371804 1.0527849.512001 2.0422966 1.31 2.73.1943558.1828579.4537357.2804492.7204246.2710588.2666889-.0093905.5185623-.1249837.6995754-.3210588.3877236-.3900375.3877236-1.0199625 0-1.41-.407708-.3048607-.6717708-.7642577-.73-1.27.0482762-.4993822.2973064-.9577421.69-1.27.797999-.6877034 1.2728196-1.6772151 1.31-2.73-.0359681-1.0530829-.51101-2.0430558-1.31-2.73-.3926936-.3122579-.6417238-.7706178-.69-1.27.0482762-.4993822.2973064-.9577421.69-1.27.1946988-.1823785.3084531-.4349925.315965-.701663.0075118-.2666704-.0918416-.5252875-.275965-.718337z" fill="#000"/></g></g></g></svg>