<svg height="512" viewBox="0 0 60 60" width="512" xmlns="http://www.w3.org/2000/svg"><g id="Page-1" fill="none" fill-rule="evenodd"><g id="049---Coffee"><g id="Icons_copy" transform="translate(1)"><g fill-rule="nonzero"><path id="Shape" d="m38 54v3c0 1.1045695-.8954305 2-2 2h-32c-1.1045695 0-2-.8954305-2-2v-3c0-5.5228475 4.4771525-10 10-10h1c0 3.8659932 3.1340068 7 7 7s7-3.1340068 7-7h1c.7883098.0007748 1.5737629.0947606 2.34.28-.2254691.7184271-.340119 1.4670234-.34 2.22 0 4.1421356 3.3578644 7.5 7.5 7.5z" fill="#ff5722"/><path id="Shape" d="m37.5 54c-4.1421356 0-7.5-3.3578644-7.5-7.5-.000119-.7529766.1145309-1.5015729.34-2.22-.7662371-.1852394-1.5516902-.2792252-2.34-.28h-1v.22c0 .08.24 0 .35.06-.2288602.7179008-.346884 1.4665089-.35 2.22 0 4.1421356 3.3578644 7.5 7.5 7.5h.5v3c0 1.1045695-.8954305 2-2 2h3c1.1045695 0 2-.8954305 2-2v-3z" fill="#d84315"/><path id="Shape" d="m27 44c0 3.8659932-3.1340068 7-7 7s-7-3.1340068-7-7h4c-.08-2.29-.3-3.15-.52-5.23 1.1667182.1568206 2.3427954.2336666 3.52.23 1.1872138.0050404 2.3733617-.0718086 3.55-.23-.22 2.08-.44 2.94-.52 5.23z" fill="#ffe0b2"/><path id="Shape" d="m5.22 27.79c-.39128174.1407118-.80418991.2117862-1.22.21-2.209139 0-4-1.790861-4-4s1.790861-4 4-4c.33773489-.0030147.67426164.0407338 1 .13v3c-.02918178 1.5564805.04431101 3.1131915.22 4.66z" fill="#dfc49c"/><path id="Shape" d="m40 24c0 2.209139-1.790861 4-4 4-.4158101.0017862-.8287183-.0692882-1.22-.21.1739394-1.5335598.2474295-3.0768512.22-4.62v-3c.3238271-.1028066.6603919-.1600226 1-.17 2.209139 0 4 1.790861 4 4z" fill="#dfc49c"/><path id="Shape" d="m32 13.6c-11.71-.54-16.29-4.16-16.29-4.16s-1.07 5.28-10.71 5.28v8.45c-.0274295 1.5431488.04606057 3.0864402.22 4.62.61 4.62 2.87 9.85 11.23 11 .924824.1285072 1.8564645.2019699 2.79.22h.76c1.1872138.0050404 2.3733617-.0718086 3.55-.23 8.36-1.13 10.62-6.36 11.23-11 .1735044-1.5302475.2469938-3.0701842.22-4.61v-9.5c-1 0-2-.02-3-.07zm-5 6.4c1.1045695 0 2 .8954305 2 2s-.8954305 2-2 2-2-.8954305-2-2 .8954305-2 2-2zm-16 2c0-1.1045695.8954305-2 2-2s2 .8954305 2 2-.8954305 2-2 2-2-.8954305-2-2zm2 8h14s-1.75 5-7 5-7-5-7-5z" fill="#ffe0b2"/><path id="Shape" d="m35 13.67v9.5c.0274295 1.5431488-.0460606 3.0864402-.22 4.62-.61 4.62-2.87 9.85-11.23 11-1.1771007.1515043-2.3632467.2216707-3.55.21h-.76-.74c.72 0 1.41-.09 2.05-.18 8.36-1.13 10.62-6.36 11.23-11 .1752502-1.5434964.2487423-3.0968523.22-4.65v-9.57c1 .05 2 .07 3 .07z" fill="#dfc49c"/><circle id="Oval" cx="13" cy="22" fill="#02a9f4" r="2"/><circle id="Oval" cx="27" cy="22" fill="#02a9f4" r="2"/><path id="Shape" d="m27 30s-1.75 5-7 5-7-5-7-5z" fill="#f5f5f5"/><path id="Shape" d="m35 12.08v1.59c-13.93 0-19.29-4.23-19.29-4.23s-1.07 5.28-10.71 5.28v-4.72c0-3.79 5.36-9 15-9 3.8310685-.14767981 7.6181271.85918304 10.87 2.89 2.0611044 1.22588295 3.5477312 3.22365017 4.13 5.55v1.32z" fill="#a0522d"/><path id="Shape" d="m35 10.76c0-.61 0-1.23 0-1.32-.5726277-2.31954009-2.0440462-4.31620831-4.09-5.55-3.2632712-2.03860093-7.0654499-3.04577751-10.91-2.89-.5 0-1 0-1.46.05 3.3098841.08377317 6.5347892 1.06541632 9.33 2.84 2.0611044 1.22588295 3.5477312 3.22365017 4.13 5.55v1.32 1.32 1.51c1 .05 2 .08 3 .08v-1.59c0-.08 0-.7 0-1.32z" fill="#783e22"/><path id="Shape" d="m58 39v13c0 1.8565154-.7374979 3.6369928-2.0502525 4.9497475-1.3127547 1.3127546-3.0932321 2.0502525-4.9497475 2.0502525h-6c-3.0963377.0007944-5.8253322-2.0327335-6.71-5-.1941586-.648852-.29187-1.3227238-.29-2l-.0000263-13z" fill="#02a9f4"/><path id="Shape" d="m55 39v13c0 1.8565154-.7374979 3.6369928-2.0502525 4.9497475-1.3127547 1.3127546-3.0932321 2.0502525-4.9497475 2.0502525h3c1.8565154 0 3.6369928-.7374979 4.9497475-2.0502525 1.3127546-1.3127547 2.0502525-3.0932321 2.0502525-4.9497475v-13z" fill="#0377bc"/><path id="Shape" d="m58 35v4h-20v-4c0-.5522847.4477153-1 1-1h18c.5522847 0 1 .4477153 1 1z" fill="#ffeb3a"/><path id="Shape" d="m57 34h-3c.5522847 0 1 .4477153 1 1v4h3v-4c0-.5522847-.4477153-1-1-1z" fill="#fdd834"/></g><path id="Shape" d="m37.5 43c-1.9329966 0-3.5 1.5670034-3.5 3.5s1.5670034 3.5 3.5 3.5h.5v-7z"/><path id="Shape" d="m38.29 54h-.79c-4.1421356 0-7.5-3.3578644-7.5-7.5.0055088-4.1398517 3.3601483-7.4944912 7.5-7.5h.5v4h-.5c-1.9329966 0-3.5 1.5670034-3.5 3.5s1.5670034 3.5 3.5 3.5h.5v2c-.00187.6772762.0958414 1.351148.29 2z" fill="#00bcd4" fill-rule="nonzero"/></g><g id="Layer_2" fill-rule="nonzero"><g fill="#000"><path id="Shape" d="m21 36c3.5645342-.0661914 6.720523-2.3199013 7.94-5.67.1097957-.3048603.0650709-.6440232-.12-.91-.1887222-.2650724-.4946135-.4217484-.82-.42h-14c-.3253865-.0017484-.6312778.1549276-.82.42-.1850709.2659768-.2297957.6051397-.12.91 1.219477 3.3500987 4.3754658 5.6038086 7.94 5.67zm5.36-5c-1.1441282 1.8630951-3.173644 2.9984198-5.36 2.9984198s-4.2158718-1.1353247-5.36-2.9984198z"/><path id="Shape" d="m17 25c.5522847 0 1-.4477153 1-1s-.4477153-1-1-1h-.18c.4519845-1.2453025.0336359-2.6396392-1.0292461-3.4304301-1.0628819-.790791-2.5186259-.790791-3.5815078 0-1.062882.7907909-1.4812306 2.1851276-1.0292461 3.4304301h-.18c-.5522847 0-1 .4477153-1 1s.4477153 1 1 1zm-4-3c0-.5522847.4477153-1 1-1s1 .4477153 1 1-.4477153 1-1 1-1-.4477153-1-1z"/><path id="Shape" d="m25 25h6c.5522847 0 1-.4477153 1-1s-.4477153-1-1-1h-.18c.4519845-1.2453025.0336359-2.6396392-1.0292461-3.4304301-1.0628819-.790791-2.5186259-.790791-3.5815078 0-1.062882.7907909-1.4812306 2.1851276-1.0292461 3.4304301h-.18c-.5522847 0-1 .4477153-1 1s.4477153 1 1 1zm2-3c0-.5522847.4477153-1 1-1s1 .4477153 1 1-.4477153 1-1 1-1-.4477153-1-1z"/><path id="Shape" d="m20 27h2c.5522847 0 1-.4477153 1-1s-.4477153-1-1-1h-2c-.5522847 0-1 .4477153-1 1s.4477153 1 1 1z"/><path id="Shape" d="m50 22c.0359681 1.0530829.51101 2.0430558 1.31 2.73.3926936.3122579.6417238.7706178.69 1.27-.0482762.4993822-.2973064.9577421-.69 1.27-.1893127.1877666-.2957983.4433625-.2957983.71s.1064856.5222334.2957983.71c.1805375.1896934.4282819.3009989.69.31.2560877.0016723.5030575-.094968.69-.27.8279995-.6642886 1.3097717-1.6684622 1.3097717-2.73s-.4817722-2.0657114-1.3097717-2.73c-.3926936-.3122579-.6417238-.7706178-.69-1.27.0482762-.4993822.2973064-.9577421.69-1.27.79899-.6869442 1.2740319-1.6769171 1.31-2.73-.0359681-1.0530829-.51101-2.0430558-1.31-2.73-.4031679-.3810765-1.0389235-.3631679-1.42.04s-.3631679 1.0389235.04 1.42c.3926936.3122579.6417238.7706178.69 1.27-.0482762.4993822-.2973064.9577421-.69 1.27-.79899.6869442-1.2740319 1.6769171-1.31 2.73z"/><path id="Shape" d="m44 22c.0359681 1.0530829.51101 2.0430558 1.31 2.73.3926936.3122579.6417238.7706178.69 1.27-.0482762.4993822-.2973064.9577421-.69 1.27-.1893127.1877666-.2957983.4433625-.2957983.71s.1064856.5222334.2957983.71c.1805375.1896934.4282819.3009989.69.31.2560877.0016723.5030575-.094968.69-.27.8279995-.6642886 1.3097717-1.6684622 1.3097717-2.73s-.4817722-2.0657114-1.3097717-2.73c-.3926936-.3122579-.6417238-.7706178-.69-1.27.0482762-.4993822.2973064-.9577421.69-1.27.79899-.6869442 1.2740319-1.6769171 1.31-2.73-.0359681-1.0530829-.51101-2.0430558-1.31-2.73-.2608039-.2465133-.6333099-.3351637-.9771986-.2325576-.3438887.1026062-.6069152.3808806-.69.73-.0830848.3491195.0263947.7160443.2871986.9625576.3926936.3122579.6417238.7706178.69 1.27-.0482762.4993822-.2973064.9577421-.69 1.27-.79899.6869442-1.2740319 1.6769171-1.31 2.73z"/><path id="Shape" d="m58 33h-18c-1.1045695 0-2 .8954305-2 2v3c-3.2108428.1844324-6.0377989 2.1776498-7.29 5.14-.5654857-.0911161-1.1372244-.1379251-1.71-.14h-3.92c.06-.89.15-1.57.25-2.32 0-.33.08-.67.13-1 7.7-1.35 10.27-6.23 11.11-10.67h.43c2.7614237 0 5-2.2385763 5-5s-2.2385763-5-5-5v-6.93s0-2.49-.06-2.8c-.62-3.73-5.37-9.28-15.94-9.28s-16 5.79-16 10v9c-2.76142375 0-5 2.2385763-5 5s2.23857625 5 5 5h.43c.84 4.44 3.41 9.32 11.11 10.67.05.37.09.71.13 1 .1.75.19 1.43.25 2.32h-3.92c-2.9191148-.0000012-5.7185244 1.1602966-7.78171226 3.2253601-2.06318787 2.0650635-3.22094148 4.8655263-3.21828774 7.7846399v3c0 1.6568542 1.34314575 3 3 3h32c1.5639387.005439 2.8696804-1.1914909 3-2.75 1.5110463 1.7374199 3.6974408 2.7395174 6 2.75h6c4.418278 0 8-3.581722 8-8v-17c0-1.1045695-.8954305-2-2-2zm0 2v3h-18v-3zm-20 14c-1.165162-.2365962-2.0025063-1.2610592-2.0025063-2.45s.8373443-2.2134038 2.0025063-2.45zm-5.7-4.38c.7486768-2.5792862 3.0215955-4.4215466 5.7-4.62v2c-2.4852814 0-4.5 2.0147186-4.5 4.5s2.0147186 4.5 4.5 4.5v1c.0022202.334476.0256003.6684765.07 1-3.4209155-.2267953-6.0775096-3.0715831-6.07-6.5.0001891-.6549302.1013783-1.3059142.3-1.93zm7.7-20.62c0 1.6568542-1.3431458 3-3 3h-.14c.14-1.45.14-2.78.14-3.81v-2.19c1.6568542 0 3 1.3431458 3 3zm-19-22c9.26 0 13.48 4.67 14 7.56v2.52.57c-12.57-.2-17.62-4-17.67-4-.2702462-.21038502-.6293609-.26783604-.951754-.15226116-.3223931.11557487-.5632154.38809766-.638246.72226116 0 .18-1.07 4.14-8.74 4.46v-3.68c0-3.29 5-8 14-8zm-16 25c-1.65685425 0-3-1.3431458-3-3s1.34314575-3 3-3v2.17c0 1 0 2.36.14 3.81zm2-3.83v-7.47c6.68-.26 9.24-3.07 10.18-4.78 2.16 1.22 7.67 3.58 17.82 3.73v8.52c0 5.18 0 14.8301719-14 14.83-1.0865284.004029-2.1721639-.0627793-3.25-.2h-.05c-10.7-1.43-10.7-9.89-10.7-14.63zm10 22.83c0 .5522847.4477153 1 1 1s1-.4477153 1-1c.028817-1.8659418-.0848465-3.7313611-.34-5.58 0-.17-.05-.35-.07-.52.76.06 1.56.1 2.41.1s1.65 0 2.41-.1c0 .17 0 .35-.07.52-.2551535 1.8486389-.368817 3.7140582-.34 5.58 0 .5522847.4477153 1 1 1s1-.4477153 1-1c0-.36 0-.69 0-1h1.9c-.5028712 2.8705634-2.9957224 4.964674-5.91 4.964674s-5.4071288-2.0941106-5.91-4.964674h1.92zm-13 11v-3c0-4.9705627 4.02943725-9 9-9h.07c.5293286 3.9750415 3.9198698 6.944017 7.93 6.944017s7.4006714-2.9689755 7.93-6.944017h.07c.3780166.0017736.7555039.0284984 1.13.08-.4488355 2.4705024.2379102 5.0118286 1.87 6.92v6h-22v-4c0-.5522847-.44771525-1-1-1s-1 .4477153-1 1v4h-3c-.55228475 0-1-.4477153-1-1zm33 1h-3v-4.3c1.2020807.7643332 2.5782454 1.2115867 4 1.3v2c0 .5522847-.4477153 1-1 1zm15 0h-6c-3.3137085 0-6-2.6862915-6-6v-12h18v12c0 3.3137085-2.6862915 6-6 6z"/></g><path id="Shape" d="m46 54c-.5406059.0357639-1.0703595-.1634371-1.4534612-.5465388s-.5823027-.9128553-.5465388-1.4534612c0-.5522847-.4477153-1-1-1s-1 .4477153-1 1c-.0307097 1.0699851.3808482 2.1053413 1.1377534 2.8622466.7569053.7569052 1.7922615 1.1684631 2.8622466 1.1377534.5522847 0 1-.4477153 1-1s-.4477153-1-1-1z" fill="#f5f5f5"/></g></g></g></svg>